<svg width="30" height="30" viewBox="0 0 30 30" fill="none" xmlns="http://www.w3.org/2000/svg">
<rect x="0.5" y="0.5" width="29" height="29" rx="5.5" stroke="white"/>
<path d="M19.2396 8.0724C19.2396 7.96607 19.1974 7.8641 19.1221 7.78891C19.0469 7.71373 18.9449 7.67149 18.8386 7.67149H16.8334C15.8236 7.62121 14.835 7.97249 14.0836 8.64857C13.3321 9.32466 12.8789 10.2706 12.8229 11.2797V13.4446H10.8177C10.7114 13.4446 10.6094 13.4868 10.5341 13.562C10.4589 13.6372 10.4167 13.7392 10.4167 13.8455V15.9302C10.4167 16.0366 10.4589 16.1385 10.5341 16.2137C10.6094 16.2889 10.7114 16.3311 10.8177 16.3311H12.8229V21.7033C12.8229 21.8097 12.8652 21.9116 12.9404 21.9868C13.0156 22.062 13.1176 22.1042 13.224 22.1042H15.6302C15.7366 22.1042 15.8386 22.062 15.9138 21.9868C15.989 21.9116 16.0313 21.8097 16.0313 21.7033V16.3311H18.1327C18.2219 16.3324 18.309 16.3039 18.3802 16.2502C18.4513 16.1965 18.5026 16.1206 18.5257 16.0345L19.1032 13.9497C19.1192 13.8905 19.1213 13.8284 19.1095 13.7682C19.0977 13.708 19.0722 13.6513 19.035 13.6025C18.9978 13.5537 18.9499 13.5141 18.895 13.4867C18.8401 13.4594 18.7796 13.4449 18.7182 13.4446H16.0313V11.2797C16.0512 11.0812 16.1445 10.8973 16.2928 10.7639C16.4411 10.6304 16.6338 10.557 16.8334 10.558H18.8386C18.9449 10.558 19.0469 10.5158 19.1221 10.4406C19.1974 10.3654 19.2396 10.2635 19.2396 10.1571V8.0724Z" fill="white"/>
</svg>
